<svg width="124" height="75" viewBox="0 0 124 75" fill="none" xmlns="http://www.w3.org/2000/svg">
<path d="M8.15967 59.08V0.199951H33.5747C37.9447 0.199951 41.7684 0.995368 45.0459 2.5862C48.3234 4.17704 50.8726 6.46745 52.6934 9.45745C54.5143 12.4475 55.4247 16.0316 55.4247 20.21C55.4247 24.4266 54.4855 27.982 52.6072 30.8762C50.748 33.7704 48.1318 35.9554 44.7584 37.4312C41.4043 38.907 37.4847 39.645 32.9997 39.645H17.8197V27.225H29.7797C31.658 27.225 33.2584 26.995 34.5809 26.535C35.9226 26.0558 36.948 25.2987 37.6572 24.2637C38.3855 23.2287 38.7497 21.8775 38.7497 20.21C38.7497 18.5233 38.3855 17.1529 37.6572 16.0987C36.948 15.0254 35.9226 14.2395 34.5809 13.7412C33.2584 13.2237 31.658 12.9649 29.7797 12.9649H24.1447V59.08H8.15967ZM42.6597 32.055L57.3797 59.08H40.0147L25.6397 32.055H42.6597ZM99.8147 29.295H85.2097C85.133 28.3941 84.8167 27.6179 84.2609 26.9662C83.7051 26.3145 82.9863 25.8162 82.1047 25.4712C81.2422 25.107 80.2838 24.925 79.2297 24.925C77.8688 24.925 76.6997 25.1741 75.7222 25.6725C74.7447 26.1708 74.2655 26.88 74.2847 27.8C74.2655 28.4516 74.5434 29.0554 75.1184 29.6112C75.7126 30.167 76.853 30.5983 78.5397 30.905L87.5097 32.515C92.033 33.3391 95.3968 34.7287 97.6009 36.6837C99.8243 38.6195 100.946 41.2166 100.965 44.475C100.946 47.6183 100.006 50.3495 98.1472 52.6687C96.3072 54.9687 93.7867 56.7512 90.5859 58.0162C87.4043 59.262 83.7722 59.885 79.6897 59.885C72.943 59.885 67.6626 58.505 63.8484 55.745C60.0534 52.985 57.9355 49.3433 57.4947 44.82H73.2497C73.4605 46.2191 74.1505 47.302 75.3197 48.0687C76.508 48.8162 78.003 49.19 79.8047 49.19C81.2613 49.19 82.4593 48.9408 83.3984 48.4425C84.3568 47.9441 84.8455 47.235 84.8647 46.315C84.8455 45.4716 84.4238 44.8008 83.5997 44.3025C82.7947 43.8041 81.5297 43.4016 79.8047 43.095L71.9847 41.715C67.4805 40.9291 64.1072 39.4341 61.8647 37.23C59.6222 35.0258 58.5105 32.1891 58.5297 28.72C58.5105 25.6533 59.3155 23.0562 60.9447 20.9287C62.593 18.782 64.9409 17.1529 67.9884 16.0412C71.0551 14.9104 74.6872 14.345 78.8847 14.345C85.2672 14.345 90.2984 15.6675 93.9784 18.3125C97.6776 20.9575 99.623 24.6183 99.8147 29.295Z" fill="#162EAF"/>
<path d="M115.685 60C113.461 60 111.554 59.2237 109.963 57.6712C108.392 56.0995 107.615 54.1925 107.635 51.95C107.615 49.765 108.392 47.8962 109.963 46.3437C111.554 44.7912 113.461 44.015 115.685 44.015C117.793 44.015 119.652 44.7912 121.262 46.3437C122.891 47.8962 123.715 49.765 123.735 51.95C123.715 53.445 123.323 54.8058 122.556 56.0325C121.808 57.24 120.831 58.2079 119.623 58.9362C118.416 59.6454 117.103 60 115.685 60Z" fill="#162EAF"/>
<path d="M4.48022 66.4399V7.55994H29.8952C34.2652 7.55994 38.089 8.35535 41.3665 9.94619C44.644 11.537 47.1931 13.8274 49.014 16.8174C50.8348 19.8074 51.7452 23.3916 51.7452 27.5699C51.7452 31.7866 50.8061 35.342 48.9277 38.2362C47.0686 41.1304 44.4523 43.3154 41.079 44.7912C37.7248 46.267 33.8052 47.0049 29.3202 47.0049H14.1402V34.5849H26.1002C27.9786 34.5849 29.579 34.3549 30.9015 33.8949C32.2431 33.4158 33.2686 32.6587 33.9777 31.6237C34.7061 30.5887 35.0702 29.2374 35.0702 27.5699C35.0702 25.8833 34.7061 24.5129 33.9777 23.4587C33.2686 22.3854 32.2431 21.5995 30.9015 21.1012C29.579 20.5837 27.9786 20.3249 26.1002 20.3249H20.4652V66.4399H4.48022ZM38.9802 39.4149L53.7002 66.4399H36.3352L21.9602 39.4149H38.9802ZM96.1352 36.6549H81.5302C81.4536 35.7541 81.1373 34.9779 80.5815 34.3262C80.0256 33.6745 79.3069 33.1762 78.4252 32.8312C77.5627 32.467 76.6044 32.2849 75.5502 32.2849C74.1894 32.2849 73.0202 32.5341 72.0427 33.0324C71.0652 33.5308 70.5861 34.2399 70.6052 35.1599C70.5861 35.8116 70.864 36.4154 71.439 36.9712C72.0331 37.527 73.1736 37.9583 74.8602 38.2649L83.8302 39.8749C88.3536 40.6991 91.7173 42.0887 93.9215 44.0437C96.1448 45.9795 97.2661 48.5766 97.2852 51.8349C97.2661 54.9783 96.3269 57.7095 94.4677 60.0287C92.6277 62.3287 90.1073 64.1112 86.9065 65.3762C83.7248 66.622 80.0927 67.2449 76.0102 67.2449C69.2636 67.2449 63.9831 65.8649 60.169 63.1049C56.374 60.3449 54.2561 56.7033 53.8152 52.1799H69.5702C69.7811 53.5791 70.4711 54.662 71.6402 55.4287C72.8286 56.1762 74.3236 56.5499 76.1252 56.5499C77.5819 56.5499 78.7798 56.3008 79.719 55.8024C80.6773 55.3041 81.1661 54.5949 81.1852 53.6749C81.1661 52.8316 80.7444 52.1608 79.9202 51.6624C79.1152 51.1641 77.8502 50.7616 76.1252 50.4549L68.3052 49.0749C63.8011 48.2891 60.4277 46.7941 58.1852 44.5899C55.9427 42.3858 54.8311 39.5491 54.8502 36.0799C54.8311 33.0133 55.6361 30.4162 57.2652 28.2887C58.9136 26.142 61.2615 24.5129 64.309 23.4012C67.3756 22.2704 71.0077 21.7049 75.2052 21.7049C81.5877 21.7049 86.619 23.0274 90.299 25.6724C93.9981 28.3174 95.9436 31.9783 96.1352 36.6549Z" fill="white"/>
<path d="M112.005 67.3599C109.782 67.3599 107.875 66.5837 106.284 65.0312C104.712 63.4595 103.936 61.5524 103.955 59.3099C103.936 57.1249 104.712 55.2562 106.284 53.7037C107.875 52.1512 109.782 51.3749 112.005 51.3749C114.114 51.3749 115.973 52.1512 117.583 53.7037C119.212 55.2562 120.036 57.1249 120.055 59.3099C120.036 60.8049 119.643 62.1658 118.876 63.3924C118.129 64.5999 117.151 65.5679 115.944 66.2962C114.736 67.0054 113.424 67.3599 112.005 67.3599Z" fill="white"/>
<path d="M0.799561 73.7999V14.9199H26.2146C30.5846 14.9199 34.4083 15.7153 37.6858 17.3062C40.9633 18.897 43.5125 21.1874 45.3333 24.1774C47.1541 27.1674 48.0646 30.7516 48.0646 34.9299C48.0646 39.1466 47.1254 42.702 45.2471 45.5962C43.3879 48.4903 40.7716 50.6753 37.3983 52.1512C34.0441 53.627 30.1246 54.3649 25.6396 54.3649H10.4596V41.9449H22.4196C24.2979 41.9449 25.8983 41.7149 27.2208 41.2549C28.5625 40.7758 29.5879 40.0187 30.2971 38.9837C31.0254 37.9487 31.3896 36.5974 31.3896 34.9299C31.3896 33.2433 31.0254 31.8728 30.2971 30.8187C29.5879 29.7453 28.5625 28.9595 27.2208 28.4612C25.8983 27.9437 24.2979 27.6849 22.4196 27.6849H16.7846V73.7999H0.799561ZM35.2996 46.7749L50.0196 73.7999H32.6546L18.2796 46.7749H35.2996ZM92.4546 44.0149H77.8496C77.7729 43.1141 77.4566 42.3378 76.9008 41.6862C76.345 41.0345 75.6262 40.5362 74.7446 40.1912C73.8821 39.827 72.9237 39.6449 71.8696 39.6449C70.5087 39.6449 69.3396 39.8941 68.3621 40.3924C67.3846 40.8908 66.9054 41.5999 66.9246 42.5199C66.9054 43.1716 67.1833 43.7753 67.7583 44.3312C68.3525 44.887 69.4929 45.3183 71.1796 45.6249L80.1496 47.2349C84.6729 48.0591 88.0366 49.4487 90.2408 51.4037C92.4641 53.3395 93.5854 55.9366 93.6046 59.1949C93.5854 62.3383 92.6462 65.0695 90.7871 67.3887C88.9471 69.6887 86.4266 71.4712 83.2258 72.7362C80.0441 73.982 76.4121 74.6049 72.3296 74.6049C65.5829 74.6049 60.3025 73.2249 56.4883 70.4649C52.6933 67.7049 50.5754 64.0633 50.1346 59.5399H65.8896C66.1004 60.9391 66.7904 62.022 67.9596 62.7887C69.1479 63.5362 70.6429 63.9099 72.4446 63.9099C73.9012 63.9099 75.0991 63.6608 76.0383 63.1624C76.9966 62.6641 77.4854 61.9549 77.5046 61.0349C77.4854 60.1916 77.0637 59.5208 76.2396 59.0224C75.4346 58.5241 74.1696 58.1216 72.4446 57.8149L64.6246 56.4349C60.1204 55.6491 56.7471 54.1541 54.5046 51.9499C52.2621 49.7458 51.1504 46.9091 51.1696 43.4399C51.1504 40.3733 51.9554 37.7762 53.5846 35.6487C55.2329 33.502 57.5808 31.8728 60.6283 30.7612C63.695 29.6303 67.3271 29.0649 71.5246 29.0649C77.9071 29.0649 82.9383 30.3874 86.6183 33.0324C90.3175 35.6774 92.2629 39.3383 92.4546 44.0149Z" fill="#13B2D5"/>
<path d="M108.325 74.7199C106.101 74.7199 104.194 73.9437 102.603 72.3912C101.032 70.8195 100.255 68.9124 100.275 66.6699C100.255 64.4849 101.032 62.6162 102.603 61.0637C104.194 59.5112 106.101 58.7349 108.325 58.7349C110.433 58.7349 112.292 59.5112 113.902 61.0637C115.531 62.6162 116.355 64.4849 116.375 66.6699C116.355 68.1649 115.962 69.5258 115.196 70.7524C114.448 71.9599 113.471 72.9278 112.263 73.6562C111.056 74.3653 109.743 74.7199 108.325 74.7199Z" fill="#13B2D5"/>
</svg>
